<?xml version="1.0" standalone="no"?>
<!DOCTYPE svg PUBLIC "-//W3C//DTD SVG 20010904//EN"
 "http://www.w3.org/TR/2001/REC-SVG-20010904/DTD/svg10.dtd">
<svg version="1.0" xmlns="http://www.w3.org/2000/svg"
 width="500.000000pt" height="500.000000pt" viewBox="0 0 500.000000 500.000000"
 preserveAspectRatio="xMidYMid meet">

<g transform="translate(0.000000,500.000000) scale(0.100000,-0.100000)"
fill="#000000" stroke="none">
<path d="M1433 3683 c3 -5 10 -27 16 -50 l12 -42 61 -3 c72 -3 61 16 123 -203
21 -71 44 -150 52 -175 8 -25 18 -58 23 -75 16 -60 101 -351 113 -385 28 -84
84 -146 167 -184 44 -20 61 -21 603 -24 l557 -3 0 86 0 85 -543 0 c-497 0
-545 1 -567 17 -38 26 -59 55 -60 80 0 19 9 25 53 37 28 8 75 17 102 21 28 4
77 13 110 20 33 8 112 23 175 35 63 12 147 28 185 36 108 22 465 92 508 99
l37 6 0 219 0 220 -689 0 -688 0 -13 48 c-6 26 -19 68 -28 95 l-16 47 -149 0
c-81 0 -146 -3 -144 -7z"/>
<path d="M2065 2480 c-28 -11 -72 -60 -84 -93 -26 -67 -1 -148 56 -187 48 -33
144 -36 184 -5 54 40 72 79 67 143 -5 68 -31 112 -82 136 -36 17 -108 20 -141
6z"/>
<path d="M2933 2480 c-80 -32 -117 -134 -79 -218 26 -58 77 -87 151 -87 69 0
82 8 127 69 41 57 39 119 -5 178 -18 23 -44 48 -57 55 -29 15 -105 16 -137 3z"/>
<path d="M1118 1790 c-15 -4 -44 -24 -64 -43 -29 -27 -38 -45 -45 -88 -10 -61
-2 -122 14 -112 6 4 7 1 2 -6 -12 -21 45 -70 100 -86 41 -13 58 -13 98 -3 53
13 81 37 71 62 -8 21 -17 20 -39 -4 -14 -15 -31 -20 -74 -20 -48 0 -61 4 -88
29 -32 29 -43 53 -45 101 -2 49 2 60 36 94 48 47 100 55 162 25 38 -18 48 -19
54 -8 27 43 -99 84 -182 59z"/>
<path d="M1494 1788 c-118 -31 -153 -212 -58 -299 64 -58 201 -54 256 7 23 26
48 91 48 124 0 73 -71 168 -128 172 -69 5 -89 4 -118 -4z m126 -43 c63 -32 92
-139 53 -195 -40 -58 -45 -60 -112 -60 -61 0 -66 2 -98 36 -35 38 -49 87 -38
126 11 34 54 88 79 98 33 14 84 11 116 -5z"/>
<path d="M3652 1792 c-38 -12 -91 -61 -107 -99 -45 -108 10 -215 124 -243 55
-13 106 -3 147 29 18 14 20 20 9 34 -11 16 -14 16 -39 -4 -22 -18 -37 -21 -85
-17 -50 3 -63 9 -85 34 -27 31 -46 82 -41 111 2 10 4 23 4 29 1 6 17 27 36 47
47 48 105 58 164 28 41 -22 61 -21 61 2 -1 36 -125 68 -188 49z"/>
<path d="M440 1620 l0 -170 123 0 c116 0 123 1 123 20 0 19 -7 20 -97 20 l-97
0 -4 55 -3 55 88 0 c80 0 87 2 87 20 0 17 -8 19 -87 22 l-88 3 2 40 c0 22 2
46 2 53 1 9 27 12 96 12 88 0 95 1 95 20 0 19 -7 20 -120 20 l-120 0 0 -170z"/>
<path d="M1830 1620 l0 -170 25 0 25 0 0 135 c0 74 3 135 8 135 4 0 34 -54 67
-120 58 -119 76 -137 96 -100 5 8 30 60 57 114 26 55 53 101 60 104 9 3 12
-30 12 -132 0 -129 1 -136 20 -136 19 0 20 7 20 170 l0 170 -40 0 -39 0 -37
-77 c-57 -122 -68 -143 -75 -143 -9 0 -89 157 -89 175 0 8 -4 15 -10 15 -5 0
-10 7 -10 15 0 11 -12 15 -45 15 l-45 0 0 -170z"/>
<path d="M2331 1620 l0 -170 25 0 24 0 0 135 c0 159 10 171 55 64 16 -38 35
-75 41 -80 7 -5 15 -22 19 -37 8 -32 23 -52 39 -52 7 0 35 46 63 103 83 165
82 165 83 5 l0 -138 25 0 25 0 0 170 0 170 -43 0 -43 0 -52 -110 c-28 -60 -55
-110 -60 -110 -4 0 -31 50 -60 110 l-52 110 -44 0 -44 0 -1 -170z"/>
<path d="M2840 1620 l0 -170 123 0 c116 0 123 1 124 20 2 19 -4 20 -98 20
l-100 0 3 53 3 52 83 3 c74 3 82 5 82 22 0 18 -7 20 -85 20 l-85 0 0 55 0 55
95 0 c88 0 95 1 95 20 0 19 -7 20 -120 20 l-120 0 0 -170z"/>
<path d="M3170 1620 l0 -170 25 0 c22 0 24 4 27 58 l3 57 45 3 c42 2 47 0 70
-35 42 -63 63 -83 87 -83 13 0 23 2 23 5 0 3 -16 25 -35 51 -40 52 -43 70 -15
79 22 7 50 64 50 102 0 36 -25 78 -55 91 -14 7 -70 12 -125 12 l-100 0 0 -170z
m208 118 c17 -9 22 -20 22 -53 0 -57 -20 -74 -95 -76 -33 -1 -66 -1 -72 0 -9
1 -13 21 -13 66 0 59 2 67 23 74 27 11 103 4 135 -11z"/>
<path d="M3930 1620 l0 -170 120 0 c113 0 120 1 120 20 0 18 -8 20 -97 22
l-98 3 0 50 0 50 88 3 c79 3 87 5 87 22 0 18 -7 20 -84 20 -92 0 -93 0 -92 70
l1 35 96 3 c91 3 97 4 92 22 -5 18 -14 20 -119 20 l-114 0 0 -170z"/>
<path d="M770 1590 c0 -18 7 -20 75 -20 68 0 75 2 75 20 0 18 -7 20 -75 20
-68 0 -75 -2 -75 -20z"/>
</g>
</svg>
